<?xml version="1.0" standalone="no"?>
<!DOCTYPE svg PUBLIC "-//W3C//DTD SVG 20010904//EN"
 "http://www.w3.org/TR/2001/REC-SVG-20010904/DTD/svg10.dtd">
<svg version="1.0" xmlns="http://www.w3.org/2000/svg"
 width="690.000000pt" height="474.000000pt" viewBox="0 0 690.000000 474.000000"
 preserveAspectRatio="xMidYMid meet">

<g transform="translate(0.000000,474.000000) scale(0.100000,-0.100000)"
fill="#000000" stroke="none">
<path d="M1512 3798 c-9 -9 -12 -236 -12 -959 l0 -948 -80 -7 c-57 -5 -80 -10
-80 -20 0 -11 47 -14 233 -16 127 -2 238 1 245 6 31 22 2 31 -99 31 l-104 0
-3 798 -2 797 810 0 c798 0 809 0 820 -20 19 -36 69 -53 150 -52 80 2 90 -4
90 -49 0 -22 4 -26 24 -22 13 3 26 0 30 -5 9 -15 -4 -42 -20 -42 -8 0 -14 -7
-14 -15 0 -24 13 -18 37 18 25 36 47 93 57 150 l7 37 329 0 330 0 0 -560 0
-560 -35 0 c-19 0 -35 5 -35 10 0 6 -28 10 -64 10 -72 0 -86 10 -84 61 1 45
-52 371 -63 383 -15 17 -18 2 -8 -49 5 -28 11 -86 14 -130 2 -44 10 -96 18
-115 8 -19 18 -56 21 -82 5 -34 14 -53 33 -68 l26 -20 -87 0 c-51 0 -86 -4
-86 -10 0 -6 65 -10 175 -10 l175 0 0 -260 0 -260 -155 0 -155 0 0 -45 0 -45
210 0 c197 0 210 1 220 19 6 12 10 128 10 305 l0 286 86 0 c54 0 83 4 79 10
-3 6 -54 10 -113 11 -59 1 -96 4 -82 8 l25 7 3 697 c2 477 -1 704 -8 717 -11
20 -26 20 -1433 20 -1094 0 -1426 -3 -1435 -12z m1008 -208 l0 -70 -415 0
-415 0 0 70 0 70 415 0 415 0 0 -70z m1429 44 c12 -15 21 -34 21 -44 0 -10 -9
-29 -21 -44 -39 -50 -122 -22 -122 42 0 69 80 99 122 46z"/>
<path d="M1179 3498 c-2 -30 -3 -35 -6 -15 -2 15 -7 27 -11 27 -20 0 -102
-159 -131 -255 -26 -83 -40 -215 -22 -215 6 0 11 -4 11 -8 0 -9 -54 -42 -69
-42 -19 0 -12 18 10 25 80 26 -165 34 -269 10 -66 -16 -122 -40 -134 -59 -8
-12 -4 -47 14 -131 36 -168 177 -324 367 -405 29 -13 58 -23 65 -23 6 0 31 14
56 30 78 53 276 123 347 123 l23 0 0 419 0 419 -52 42 c-56 45 -157 100 -183
100 -11 0 -15 -12 -16 -42z m-2 -125 c-2 -16 -4 -5 -4 22 0 28 2 40 4 28 2
-13 2 -35 0 -50z m-2 -90 c-7 -38 -12 -50 -19 -42 -7 9 7 79 16 79 6 0 8 -14
3 -37z m-35 -113 c-7 -16 -16 -30 -21 -30 -12 0 -11 6 7 41 20 39 31 30 14
-11z m-65 -90 c-16 -16 -31 -28 -34 -25 -2 3 8 19 24 35 16 16 31 28 34 25 2
-3 -8 -19 -24 -35z m-155 -99 c0 -12 -79 -31 -85 -20 -3 4 9 13 27 18 44 12
58 13 58 2z m-115 -31 c-3 -5 -24 -10 -46 -10 -24 0 -38 4 -34 10 3 6 24 10
46 10 24 0 38 -4 34 -10z"/>
<path d="M1980 2595 l0 -495 30 0 30 0 0 495 0 495 -30 0 -30 0 0 -495z"/>
<path d="M2590 2875 l0 -75 30 0 30 0 0 75 0 75 -30 0 -30 0 0 -75z"/>
<path d="M4752 2923 c-34 -3 -43 -8 -40 -21 2 -12 15 -18 39 -20 32 -3 38 -7
43 -34 11 -55 9 -60 -24 -53 -29 6 -30 5 -30 -30 0 -42 17 -52 57 -33 27 13
28 17 25 71 -3 36 0 57 7 57 6 0 12 -19 12 -42 l1 -43 10 51 c12 64 -2 105
-34 102 -13 -1 -42 -3 -66 -5z"/>
<path d="M5870 2793 c0 -3 8 -15 18 -26 16 -19 16 -20 -5 -8 -29 15 -64 13
-87 -4 -11 -8 -28 -15 -38 -15 -9 0 -22 -9 -28 -20 -16 -29 22 -65 58 -55 15
4 41 7 57 8 30 2 30 2 27 -45 -3 -32 2 -55 14 -75 10 -15 14 -25 10 -21 -5 4
-15 1 -23 -7 -18 -19 -38 -19 -55 -2 -19 21 -83 1 -124 -38 -50 -48 -45 -55
40 -55 l74 0 19 -45 c18 -44 19 -45 66 -45 41 0 47 3 47 21 0 11 4 18 9 14 5
-3 28 2 50 11 35 14 39 19 31 34 -6 10 -10 41 -10 68 0 38 -7 59 -30 93 -26
38 -30 53 -30 112 0 54 -4 71 -20 87 -19 19 -70 28 -70 13z"/>
<path d="M1740 2345 l0 -245 35 0 35 0 0 245 0 245 -35 0 -35 0 0 -245z"/>
<path d="M2590 2343 l0 -243 30 0 30 0 0 239 0 239 -30 4 -30 5 0 -244z"/>
<path d="M5264 2444 c3 -9 6 -18 6 -20 0 -2 27 -4 59 -4 55 0 71 8 71 36 0 2
-32 4 -71 4 -61 0 -70 -2 -65 -16z"/>
<path d="M5170 2270 c0 -6 98 -10 275 -10 l275 0 0 -35 0 -35 -93 0 c-77 0
-97 -3 -109 -17 -28 -33 -27 -52 8 -156 l35 -104 -95 -164 c-52 -90 -92 -167
-90 -171 18 -28 67 22 162 165 25 37 48 67 51 67 13 0 40 -119 36 -156 -4 -34
-3 -35 4 -9 l7 30 14 -44 c8 -23 20 -45 28 -48 30 -12 34 13 22 162 l-11 148
62 59 c43 41 74 61 101 67 79 18 113 77 102 177 l-6 64 126 0 c82 0 125 4 121
10 -4 6 -187 10 -516 10 -333 0 -509 -3 -509 -10z"/>
<path d="M2350 2185 l0 -85 35 0 35 0 0 85 0 85 -35 0 -35 0 0 -85z"/>
<path d="M5070 2270 c0 -3 9 -34 20 -68 26 -84 26 -136 -1 -163 -11 -11 -18
-23 -16 -26 3 -2 15 5 26 16 26 26 28 93 5 172 -13 44 -34 88 -34 69z"/>
<path d="M4664 2191 c-38 -26 -86 -67 -108 -91 l-38 -43 7 -111 c4 -61 10
-131 14 -156 l6 -45 28 64 28 64 16 -24 c9 -13 31 -45 50 -71 l33 -48 -89 0
c-65 0 -88 3 -88 13 4 38 -17 257 -23 250 -8 -9 -76 -283 -86 -350 -6 -39 -5
-43 14 -43 19 0 21 7 25 68 2 37 4 3 5 -75 l2 -143 195 0 196 0 -3 138 -3 137
-31 3 c-27 3 -33 8 -38 35 -4 18 -24 76 -45 129 -40 102 -40 108 11 108 11 0
22 8 25 20 5 20 60 41 148 56 63 10 125 79 125 139 l0 25 -153 0 -154 0 -69
-49z m-131 -500 c-2 -7 24 -11 82 -11 69 0 85 3 85 15 0 12 13 15 59 15 71 0
71 0 71 -147 l0 -103 -180 0 -180 0 0 110 0 110 25 0 c18 0 23 4 18 16 -4 12
-2 15 8 12 8 -3 13 -11 12 -17z"/>
<path d="M4720 1540 c0 -47 3 -60 15 -60 12 0 15 13 15 60 0 47 -3 60 -15 60
-12 0 -15 -13 -15 -60z"/>
<path d="M3136 2031 c-3 -4 -13 -51 -22 -102 -9 -52 -18 -97 -21 -101 -2 -5
-168 -8 -369 -8 -302 0 -364 -2 -364 -14 0 -7 13 -16 29 -19 15 -3 42 -17 59
-31 l30 -26 726 0 726 0 0 23 c0 12 3 32 6 45 6 21 4 22 -65 22 l-71 0 0 110
0 110 -329 0 c-182 0 -332 -4 -335 -9z"/>
<path d="M2273 1994 c-3 -8 -14 -14 -24 -14 -11 0 -22 -7 -26 -16 -10 -26 26
-45 75 -43 34 3 45 -1 58 -19 13 -18 13 -26 3 -38 -14 -18 -8 -27 14 -18 17 6
57 68 57 87 -1 7 -12 25 -25 42 -21 25 -32 30 -75 32 -36 1 -53 -3 -57 -13z"/>
<path d="M1207 1983 c-4 -3 -7 -18 -7 -33 0 -16 -12 -40 -30 -59 -30 -31 -30
-32 -14 -63 15 -29 15 -34 0 -65 -15 -31 -15 -36 0 -65 10 -19 14 -42 10 -60
-7 -34 8 -68 29 -68 25 0 17 -59 -16 -116 l-30 -54 6 -117 c5 -89 3 -138 -9
-198 -9 -44 -16 -83 -16 -87 0 -5 38 -8 84 -8 l84 0 6 31 c3 17 6 44 6 60 0
28 2 29 50 29 59 0 48 33 95 -289 33 -227 45 -289 45 -232 0 13 -16 131 -35
262 -19 132 -35 242 -35 244 0 3 47 5 105 5 77 0 105 -3 105 -12 0 -7 -16
-118 -35 -247 -30 -205 -35 -257 -22 -240 2 2 18 108 36 234 18 127 35 238 38
248 4 15 18 17 103 17 l99 0 6 -32 c3 -18 19 -127 36 -243 27 -190 46 -286 48
-245 1 9 -15 119 -34 245 -41 272 -41 275 -16 275 10 0 21 7 25 15 5 13 -28
15 -255 15 l-260 0 -24 53 c-13 28 -32 84 -41 122 -11 46 -25 75 -38 85 -30
21 -66 58 -66 67 0 5 13 17 29 26 28 17 30 17 40 0 11 -19 11 -19 15 12 2 11
9 45 16 76 13 56 12 58 -19 113 -18 31 -38 56 -46 56 -8 0 -16 19 -20 53 -4
28 -14 60 -23 70 -14 16 -14 19 3 31 14 10 25 10 46 3 52 -20 108 33 72 68
-17 17 -23 18 -42 6 -10 -6 -22 -5 -35 5 -21 15 -58 19 -69 7z"/>
<path d="M4852 1950 c0 -19 2 -27 5 -17 2 9 2 25 0 35 -3 9 -5 1 -5 -18z"/>
<path d="M5042 1945 c0 -16 2 -22 5 -12 2 9 2 23 0 30 -3 6 -5 -1 -5 -18z"/>
<path d="M5952 1915 c0 -16 2 -22 5 -12 2 9 2 23 0 30 -3 6 -5 -1 -5 -18z"/>
<path d="M4842 1880 c0 -19 2 -27 5 -17 2 9 2 25 0 35 -3 9 -5 1 -5 -18z"/>
<path d="M5053 1860 c0 -25 -3 -52 -7 -61 -4 -9 3 -30 19 -52 30 -45 41 -82
26 -92 -6 -3 -8 -17 -5 -31 3 -13 1 -31 -6 -38 -9 -12 -8 -20 6 -41 18 -27 24
-108 11 -136 -5 -11 -2 -22 8 -33 15 -15 14 -16 -13 -16 -16 0 -35 -7 -42 -15
-11 -13 -5 -15 43 -15 l56 0 6 -37 c4 -21 9 -47 12 -57 5 -18 1 -18 -58 -12
-144 15 -149 16 -149 42 0 12 -4 26 -10 29 -6 4 -10 -7 -10 -25 0 -32 -3 -35
-62 -45 -21 -3 -50 -16 -64 -28 -24 -21 -26 -29 -25 -100 l1 -77 -160 0 -160
0 0 155 0 155 183 1 c193 0 209 9 62 34 -68 11 -69 12 -42 25 15 7 27 21 27
32 0 15 -8 18 -51 18 l-51 0 4 -40 4 -40 -61 -1 c-33 -1 -118 -4 -190 -8
l-130 -6 -3 -162 -2 -163 -446 0 -446 0 -34 34 -34 34 0 184 c0 139 3 188 14
203 7 11 17 52 20 90 4 39 10 80 13 93 l5 22 -368 -2 -368 -3 -20 -60 c-30
-94 -29 -286 3 -383 13 -41 39 -98 57 -128 18 -30 36 -63 39 -74 6 -19 16 -20
252 -20 194 0 248 -3 257 -13 9 -12 51 -12 231 -6 121 5 356 6 523 2 l302 -6
0 -202 0 -202 -92 -7 c-208 -14 -766 -5 -943 17 -11 1 -21 -5 -23 -14 -5 -25
79 -29 596 -29 404 0 462 -2 462 -15 0 -8 5 -15 10 -15 6 0 10 7 10 15 0 12
17 15 89 15 49 0 96 3 105 6 12 4 16 0 16 -15 0 -12 5 -21 10 -21 6 0 10 9 10
20 0 19 7 20 203 20 197 -1 201 -1 167 -18 l-35 -16 48 -4 c29 -2 55 2 64 9
12 10 16 10 23 -1 7 -12 10 -11 16 3 4 11 17 17 39 17 19 0 37 5 40 10 11 19
25 10 25 -16 0 -14 4 -23 10 -19 6 3 10 17 10 31 0 22 4 24 50 24 49 0 50 -1
50 -30 0 -16 5 -30 10 -30 6 0 10 14 10 30 l0 30 89 0 89 0 8 -32 8 -33 3 33
4 32 220 0 219 0 0 235 0 235 -204 0 -203 0 -6 66 c-7 71 -36 174 -49 174 -11
0 -10 -7 12 -74 25 -73 27 -166 5 -166 -10 0 -15 -10 -15 -30 l0 -30 -170 0
c-145 0 -172 2 -177 15 -3 9 -3 18 -1 21 17 17 156 46 233 49 75 3 90 6 96 22
11 27 10 101 -1 108 -5 3 -10 23 -10 44 0 36 -1 37 -33 33 -28 -3 -35 0 -46
25 -7 15 -15 51 -18 80 -6 52 -6 52 31 70 35 16 37 19 31 55 -7 40 3 49 25 23
14 -17 40 -20 40 -4 0 5 -14 15 -31 21 -19 6 -28 15 -25 24 3 7 -4 16 -15 19
-26 8 -49 55 -49 99 0 27 -7 42 -30 63 -16 14 -30 32 -30 38 0 7 -9 24 -21 39
-15 19 -30 26 -54 26 -19 0 -37 -4 -40 -10 -12 -19 -24 -10 -28 23 -3 23 -4
20 -4 -13z m-603 -685 l0 -155 -105 0 -105 0 0 155 0 155 105 0 105 0 0 -155z
m-2 -387 l-3 -203 -102 -3 -103 -3 0 206 0 205 105 0 105 0 -2 -202z m268 196
l81 -7 17 -71 c9 -39 31 -120 48 -179 30 -103 33 -109 61 -114 l30 -6 -29 -24
c-30 -24 -57 -32 -36 -11 7 7 12 15 12 20 0 7 -282 2 -382 -7 l-48 -4 0 204 0
205 83 0 c45 0 118 -3 163 -6z m337 -17 c58 -25 61 -34 46 -152 -13 -104 -29
-141 -29 -65 0 50 -24 142 -50 192 -21 41 -16 45 33 25z m117 -174 c0 -17 -5
-44 -11 -60 -11 -30 -59 -97 -65 -91 -2 2 1 33 6 68 5 36 12 83 15 105 3 22 8
51 12 65 5 24 6 23 24 -15 10 -22 19 -54 19 -72z m-124 -154 l29 -5 -33 -21
c-19 -12 -43 -18 -57 -15 -24 4 -25 6 -24 96 l0 91 28 -70 c25 -60 33 -71 57
-76z"/>
<path d="M5962 1845 c0 -16 2 -22 5 -12 2 9 2 23 0 30 -3 6 -5 -1 -5 -18z"/>
<path d="M4832 1805 c0 -16 2 -22 5 -12 2 9 2 23 0 30 -3 6 -5 -1 -5 -18z"/>
<path d="M1804 1789 c3 -17 6 -38 6 -45 0 -11 26 -14 125 -14 l125 0 0 45 0
45 -131 0 -131 0 6 -31z"/>
<path d="M2110 1791 c0 -54 8 -61 67 -61 48 0 58 4 89 34 20 19 33 40 29 45
-3 7 -44 11 -96 11 l-89 0 0 -29z"/>
<path d="M5972 1775 c0 -16 2 -22 5 -12 2 9 2 23 0 30 -3 6 -5 -1 -5 -18z"/>
<path d="M5982 1695 c0 -16 2 -22 5 -12 2 9 2 23 0 30 -3 6 -5 -1 -5 -18z"/>
<path d="M5992 1625 c0 -16 2 -22 5 -12 2 9 2 23 0 30 -3 6 -5 -1 -5 -18z"/>
<path d="M1353 1566 c-8 -37 -7 -46 5 -51 18 -7 16 -8 30 32 9 26 7 34 -7 47
-16 15 -18 13 -28 -28z"/>
<path d="M1672 1584 c-7 -8 -22 -14 -32 -14 -19 0 -20 -8 -20 -145 l0 -145 28
0 29 0 7 156 c4 86 6 158 4 159 -2 2 -9 -3 -16 -11z"/>
<path d="M5611 1579 c-1 -15 -8 -29 -16 -33 -35 -13 -11 -26 50 -26 63 0 86
12 45 23 -11 3 -20 1 -20 -4 0 -5 -9 -9 -20 -9 -13 0 -22 9 -26 28 -10 44 -12
49 -13 21z"/>
<path d="M4367 1558 c-18 -9 -40 -17 -49 -18 -10 0 -18 -5 -18 -10 0 -6 29
-10 75 -8 73 1 75 2 75 27 0 21 -5 26 -25 26 -15 0 -40 -8 -58 -17z"/>
<path d="M6002 1560 c0 -14 2 -19 5 -12 2 6 2 18 0 25 -3 6 -5 1 -5 -13z"/>
<path d="M2235 1324 c-5 -11 -10 -85 -13 -165 -4 -148 6 -248 45 -421 14 -66
15 -68 46 -68 l32 0 -2 172 c-2 110 1 166 6 153 5 -11 31 -89 57 -172 l47
-153 40 0 c37 0 38 1 33 28 -23 108 -38 256 -43 430 l-6 202 -66 0 c-36 0 -89
3 -117 6 -44 6 -52 4 -59 -12z"/>
<path d="M5918 1053 l-48 -4 0 -235 0 -234 83 0 c105 0 175 31 222 98 26 38
30 54 34 123 3 69 0 86 -23 132 -14 29 -39 63 -56 75 -39 29 -104 53 -139 50
-14 -1 -47 -3 -73 -5z"/>
<path d="M1184 735 c-11 -74 -16 -135 -12 -135 4 0 10 21 14 48 3 26 12 82 18
124 7 43 10 82 6 88 -4 6 -15 -50 -26 -125z"/>
<path d="M1058 610 c-3 -16 -1 -30 4 -30 4 0 8 5 8 12 0 6 10 2 23 -10 24 -22
77 -30 77 -12 0 6 -14 13 -30 17 -17 3 -39 16 -49 29 -24 31 -28 30 -33 -6z"/>
<path d="M2243 605 c-85 -32 -77 -45 28 -44 l90 2 -3 30 c-3 26 -7 30 -33 31
-16 1 -54 -8 -82 -19z"/>
<path d="M2458 618 c-7 -4 -30 -14 -50 -22 -62 -25 -46 -36 47 -34 l86 2 -3
29 c-3 26 -7 30 -35 31 -17 1 -37 -2 -45 -6z"/>
<path d="M1240 596 c0 -14 5 -28 10 -31 6 -3 10 -1 10 6 0 10 3 10 12 1 15
-15 92 -16 83 -2 -3 6 -19 10 -34 10 -15 0 -37 9 -49 20 -27 26 -32 25 -32 -4z"/>
</g>
</svg>
